<svg xmlns="http://www.w3.org/2000/svg" width="98" height="86.544" viewBox="0 0 98 86.544">
  <g id="footer_logo" transform="translate(-723.442 -1321.708)">
    <path id="패스_20" data-name="패스 20" d="M813.536,1362.478l-22.117,0h0a1.329,1.329,0,0,0-1.329,1.329v11.941l-8.842-12.7a1.328,1.328,0,0,0-1.09-.57h-.008a1.331,1.331,0,0,0-1.092.581l-8.575,12.607v-28.028a1.33,1.33,0,0,0-2.429-.748l-9.917,14.58-10.159-14.591a1.329,1.329,0,0,0-2.42.759v14.847l-20.787,0h0a1.329,1.329,0,0,0,0,2.659l22.117,0h0a1.33,1.33,0,0,0,1.329-1.329V1351.87l8.842,12.7a1.328,1.328,0,0,0,1.091.57h.007a1.332,1.332,0,0,0,1.092-.582l8.575-12.607v28.028a1.329,1.329,0,0,0,2.428.747l9.917-14.579,10.159,14.591a1.329,1.329,0,0,0,2.42-.76v-14.847l20.787,0h0a1.329,1.329,0,0,0,0-2.659Z" transform="translate(0 -13.698)" fill="#fff"/>
    <g id="그룹_36" data-name="그룹 36" transform="translate(740.657 1321.708)">
      <g id="그룹_34" data-name="그룹 34">
        <path id="패스_21" data-name="패스 21" d="M830.29,1345.638a1.357,1.357,0,0,1-.279-.03,1.329,1.329,0,0,1-1.022-1.578c1.476-6.91-.5-12.539-5.87-16.732-3.754-2.593-7.535-3.469-11.236-2.6-8.124,1.9-13.443,11.375-13.666,11.777a1.329,1.329,0,0,1-2.326,0c-.223-.4-5.55-9.881-13.669-11.779-3.691-.862-7.461.007-11.2,2.584-5.022,4.363-6.935,10.011-5.683,16.788a1.329,1.329,0,1,1-2.614.483c-1.44-7.8.786-14.3,6.614-19.329a1.3,1.3,0,0,1,.111-.086c4.407-3.055,8.911-4.074,13.382-3.028,7.063,1.651,12.063,7.948,14.235,11.205,2.172-3.218,7.233-9.571,14.216-11.2,4.475-1.047,8.978-.028,13.386,3.027l.059.043c6.267,4.875,8.577,11.405,6.867,19.409A1.33,1.33,0,0,1,830.29,1345.638Z" transform="translate(-762.295 -1321.708)" fill="#fff"/>
      </g>
      <g id="그룹_35" data-name="그룹 35" transform="translate(7.236 36.63)">
        <path id="패스_22" data-name="패스 22" d="M805.709,1430.459c-2.647,0-7.258-3.362-10.918-6.434a88.3,88.3,0,0,1-15.94-17.576,1.329,1.329,0,0,1,2.208-1.481c8.951,13.343,22.265,22.825,24.532,22.865a1.273,1.273,0,0,1,.613-.117h.035c.04,0,.081.007.121.013,2.179-.11,15.347-9.619,24.6-22.786a1.33,1.33,0,0,1,2.175,1.53,95.3,95.3,0,0,1-15.662,16.983c-2.485,2.115-8.332,6.833-11.118,6.924A2.464,2.464,0,0,1,805.709,1430.459Zm-.276-2.544h0Zm.977-.177h0Z" transform="translate(-778.625 -1404.378)" fill="#fff"/>
      </g>
    </g>
    <g id="그룹_37" data-name="그룹 37" transform="translate(729.116 1393.258)">
      <path id="패스_23" data-name="패스 23" d="M744.926,1496.863l-4.36-9.04a.306.306,0,0,0-.276-.17.348.348,0,0,0-.34.383v9.848h-3.7v-10.529a3.874,3.874,0,0,1,1.34-3.3,3.981,3.981,0,0,1,2.51-.871c1.83,0,2.893,1.084,3.637,2.68l3.255,7.062c.086.212.191.276.362.276s.276-.064.361-.276l3.254-7.062c.744-1.6,1.808-2.68,3.637-2.68a3.979,3.979,0,0,1,2.51.871,3.873,3.873,0,0,1,1.34,3.3v10.529h-3.7v-9.848a.348.348,0,0,0-.34-.383.307.307,0,0,0-.276.17l-4.36,9.04a2.889,2.889,0,0,1-4.85,0Z" transform="translate(-736.248 -1483.187)" fill="#fff"/>
      <path id="패스_24" data-name="패스 24" d="M795.912,1498.284c-3.616,0-5.041-1.382-5.041-4.595v-9.784h3.871v9.359c0,.893.425,1.34,1.382,1.34H802.1c.957,0,1.425-.425,1.425-1.34v-9.359H807.4v9.784c0,3.212-1.425,4.595-5.041,4.595Z" transform="translate(-766.668 -1483.587)" fill="#fff"/>
      <path id="패스_25" data-name="패스 25" d="M843.24,1483.905a5.709,5.709,0,0,1,4.318,1.553,5.376,5.376,0,0,1,.34,7.274,5.7,5.7,0,0,1-4.658,1.936h-6.615v3.616h-3.85V1484.8c0-.6.319-.894.936-.894Zm.085,7.232a1.883,1.883,0,0,0,1.659-.681,1.636,1.636,0,0,0,.34-1.02,1.706,1.706,0,0,0-.362-1.085,1.966,1.966,0,0,0-1.638-.638H836.9c-.17,0-.276.085-.276.3v3.127Z" transform="translate(-790.005 -1483.587)" fill="#fff"/>
      <path id="패스_26" data-name="패스 26" d="M877.725,1498.284c-3.531,0-4.679-1.553-4.679-4.679v-9.7h3.871v9.338c0,1.043.276,1.361,1.276,1.361h9.976v3.68Z" transform="translate(-812.432 -1483.587)" fill="#fff"/>
      <path id="패스_27" data-name="패스 27" d="M925.609,1483.905v3.808H914.676c-.233,0-.34.127-.34.362v1.637h11.209v2.765H914.336v1.745c0,.255.106.382.34.382h10.933v3.68h-13.1a1.777,1.777,0,0,1-2.021-2v-10.444c0-1.3.681-1.936,2.042-1.936Z" transform="translate(-833.283 -1483.587)" fill="#fff"/>
    </g>
  </g>
</svg>
