<svg xmlns="http://www.w3.org/2000/svg" width="98" height="88" viewBox="0 0 98 88">
  <g id="logo" transform="translate(0 0)">
    <path id="패스_2" data-name="패스 2" d="M809.536,496.478l-22.117,0h0a1.329,1.329,0,0,0-1.329,1.329v11.941l-8.842-12.7a1.328,1.328,0,0,0-1.09-.57h-.008a1.33,1.33,0,0,0-1.092.581l-8.575,12.607V481.634a1.33,1.33,0,0,0-2.429-.748l-9.917,14.58-10.159-14.591a1.329,1.329,0,0,0-2.42.76v14.847l-20.787,0h0a1.329,1.329,0,0,0,0,2.659l22.117,0h0a1.329,1.329,0,0,0,1.329-1.329V485.87l8.842,12.7a1.329,1.329,0,0,0,1.091.57h.007a1.33,1.33,0,0,0,1.092-.582l8.575-12.607v28.028a1.329,1.329,0,0,0,2.428.748l9.917-14.579,10.159,14.591a1.329,1.329,0,0,0,2.42-.76V499.132l20.787,0h0a1.329,1.329,0,0,0,0-2.659Z" transform="translate(-719.442 -469.406)" fill="#fff"/>
    <g id="그룹_16" data-name="그룹 16" transform="translate(17.215 0)">
      <g id="그룹_14" data-name="그룹 14" transform="translate(0)">
        <path id="패스_3" data-name="패스 3" d="M826.29,479.638a1.363,1.363,0,0,1-.279-.03,1.329,1.329,0,0,1-1.022-1.578c1.476-6.909-.5-12.539-5.87-16.732-3.754-2.593-7.535-3.47-11.236-2.6-8.124,1.9-13.443,11.374-13.666,11.777a1.329,1.329,0,0,1-2.326,0c-.223-.4-5.551-9.881-13.669-11.778-3.691-.862-7.461.007-11.2,2.584-5.022,4.363-6.935,10.011-5.683,16.788a1.329,1.329,0,1,1-2.614.483c-1.44-7.8.786-14.3,6.614-19.329a1.292,1.292,0,0,1,.111-.086c4.407-3.055,8.911-4.074,13.382-3.028,7.063,1.65,12.063,7.948,14.235,11.205,2.172-3.218,7.233-9.571,14.216-11.2,4.475-1.047,8.978-.028,13.386,3.027l.059.043c6.267,4.875,8.577,11.405,6.867,19.409A1.33,1.33,0,0,1,826.29,479.638Z" transform="translate(-758.295 -455.709)" fill="#c52f6e"/>
      </g>
      <g id="그룹_15" data-name="그룹 15" transform="translate(7.236 36.63)">
        <path id="패스_4" data-name="패스 4" d="M801.709,564.459c-2.647,0-7.258-3.362-10.918-6.434a88.3,88.3,0,0,1-15.941-17.576,1.329,1.329,0,0,1,2.208-1.481c8.951,13.343,22.265,22.825,24.531,22.865a1.275,1.275,0,0,1,.613-.117h.035c.04,0,.081.007.121.013,2.179-.11,15.347-9.619,24.6-22.786a1.329,1.329,0,0,1,2.175,1.529,95.294,95.294,0,0,1-15.662,16.983c-2.485,2.114-8.332,6.833-11.117,6.924A2.472,2.472,0,0,1,801.709,564.459Zm-.276-2.544h0Zm.977-.177h0Z" transform="translate(-774.625 -538.378)" fill="#c52f6e"/>
      </g>
    </g>
    <g id="그룹_17" data-name="그룹 17" transform="translate(5.674 73.006)">
      <path id="패스_5" data-name="패스 5" d="M740.926,630.863l-4.36-9.039a.307.307,0,0,0-.277-.17.348.348,0,0,0-.34.383v9.848h-3.7V621.355a3.873,3.873,0,0,1,1.34-3.3,3.981,3.981,0,0,1,2.51-.871c1.829,0,2.893,1.084,3.637,2.68l3.255,7.062c.085.212.191.276.362.276s.277-.064.361-.276l3.254-7.062c.744-1.6,1.808-2.68,3.637-2.68a3.979,3.979,0,0,1,2.51.871,3.872,3.872,0,0,1,1.34,3.3v10.529h-3.7v-9.848a.348.348,0,0,0-.34-.383.306.306,0,0,0-.277.17l-4.36,9.039a2.889,2.889,0,0,1-4.85,0Z" transform="translate(-732.248 -617.187)" fill="#fff"/>
      <path id="패스_6" data-name="패스 6" d="M791.912,632.284c-3.616,0-5.041-1.382-5.041-4.595v-9.784h3.871v9.359c0,.893.425,1.34,1.382,1.34H798.1c.957,0,1.425-.425,1.425-1.34v-9.359H803.4v9.784c0,3.212-1.426,4.595-5.041,4.595Z" transform="translate(-762.668 -617.587)" fill="#fff"/>
      <path id="패스_7" data-name="패스 7" d="M839.24,617.905a5.709,5.709,0,0,1,4.318,1.553,5.376,5.376,0,0,1,.34,7.274,5.7,5.7,0,0,1-4.658,1.936h-6.615v3.616h-3.85V618.8c0-.6.319-.894.936-.894Zm.085,7.233a1.882,1.882,0,0,0,1.659-.681,1.635,1.635,0,0,0,.34-1.02,1.706,1.706,0,0,0-.362-1.085,1.966,1.966,0,0,0-1.638-.638H832.9c-.17,0-.276.085-.276.3v3.127Z" transform="translate(-786.005 -617.587)" fill="#fff"/>
      <path id="패스_8" data-name="패스 8" d="M873.725,632.284c-3.53,0-4.68-1.552-4.68-4.679v-9.7h3.871v9.338c0,1.043.276,1.361,1.276,1.361h9.976v3.68Z" transform="translate(-808.432 -617.587)" fill="#fff"/>
      <path id="패스_9" data-name="패스 9" d="M921.609,617.905v3.808H910.676c-.234,0-.34.127-.34.362v1.637h11.209v2.765H910.336v1.745c0,.255.106.383.34.383h10.933v3.68h-13.1a1.777,1.777,0,0,1-2.021-2V619.841c0-1.3.68-1.936,2.042-1.936Z" transform="translate(-829.283 -617.587)" fill="#fff"/>
    </g>
  </g>
</svg>
